# xmcd
#
# Track frame offsets:
# 150
# 23470
# 56092
# 77506
# 105861
# 125577
# 151710
# 164737
# 184903
# 206851
# 221565
# 243162
#
# Disc length: 3507 seconds
#
#
# Revision: 0
# Processed by: cddbd v1.5.2PL0 Copyright (c) Steve Scherf et al.
# Submitted via: FreeRIP 2.944 
#
DISCID=980db10c
DTITLE=Diversos - Angel´s  Night
DYEAR=2007
DGENRE=Católica
TTITLE0=Neste nome ha poder
TTITLE1=Te encontrei
TTITLE2=Quem tem Jesus tem tudo
TTITLE3=Um Deus apaixonado
TTITLE4=Drope esta onda
TTITLE5=Coração adorador
TTITLE6=Morreu por voce
TTITLE7=Meu tudo
TTITLE8=Vem Espirito Santo
TTITLE9=Joga a mão
TTITLE10=Yalleco
TTITLE11=Galeilean Man
EXTD=
EXTT0=
EXTT1=
EXTT2=
EXTT3=
EXTT4=
EXTT5=
EXTT6=
EXTT7=
EXTT8=
EXTT9=
EXTT10=
EXTT11=
PLAYORDER=
